<svg xmlns="http://www.w3.org/2000/svg" xmlns:xlink="http://www.w3.org/1999/xlink" width="500" zoomAndPan="magnify" viewBox="0 0 375 374.999991" height="500" preserveAspectRatio="xMidYMid meet" version="1.0"><path fill="#0cc0df" d="M 334.132812 311.011719 C 343.117188 295.460938 337.785156 275.578125 322.238281 266.605469 C 306.6875 257.625 286.804688 262.957031 277.828125 278.507812 C 276.046875 281.585938 274.835938 284.839844 274.144531 288.144531 L 231.578125 288.144531 C 230.15625 281.367188 226.585938 275.066406 221.15625 270.335938 L 242.421875 233.503906 C 256.832031 238.441406 273.175781 232.679688 281.078125 218.992188 C 290.050781 203.441406 284.730469 183.558594 269.175781 174.582031 C 260.378906 169.507812 250.203125 169.007812 241.390625 172.34375 L 220.378906 135.949219 C 223.371094 133.519531 225.980469 130.507812 228.019531 126.972656 C 237 111.425781 231.671875 91.542969 216.125 82.566406 C 200.574219 73.589844 180.691406 78.917969 171.710938 94.460938 C 162.738281 110.011719 168.0625 129.894531 183.613281 138.871094 C 191.703125 143.542969 200.96875 144.339844 209.261719 141.839844 L 230.710938 178.992188 C 228.425781 181.128906 226.417969 183.632812 224.773438 186.484375 C 222.878906 189.761719 221.625 193.234375 220.960938 196.757812 L 178.644531 196.757812 C 176.945312 187.78125 171.492188 179.570312 162.957031 174.644531 C 147.40625 165.667969 127.527344 170.996094 118.550781 186.542969 C 110.652344 200.230469 113.828125 217.269531 125.308594 227.28125 L 104.046875 264.109375 C 89.636719 259.171875 73.292969 264.9375 65.386719 278.625 C 56.414062 294.171875 61.738281 314.058594 77.289062 323.03125 C 92.839844 332.011719 112.71875 326.679688 121.699219 311.132812 C 129.597656 297.445312 126.417969 280.40625 114.9375 270.394531 L 136.199219 233.566406 C 143.203125 235.96875 150.671875 235.835938 157.398438 233.492188 L 178.566406 270.15625 C 175.855469 272.480469 173.492188 275.296875 171.605469 278.5625 C 162.628906 294.113281 167.957031 313.996094 183.507812 322.972656 C 199.054688 331.949219 218.9375 326.617188 227.914062 311.074219 C 229.820312 307.765625 231.082031 304.265625 231.734375 300.714844 L 274.027344 300.714844 C 275.714844 309.722656 281.167969 317.964844 289.726562 322.910156 C 305.277344 331.886719 325.15625 326.558594 334.132812 311.011719 Z M 221.09375 209.332031 C 222.507812 216.136719 226.082031 222.46875 231.53125 227.21875 L 210.269531 264.050781 C 203.417969 261.699219 196.125 261.773438 189.511719 263.972656 L 168.253906 227.148438 C 170.808594 224.878906 173.054688 222.175781 174.859375 219.050781 C 176.65625 215.941406 177.875 212.660156 178.554688 209.328125 L 221.09375 209.328125 Z M 221.09375 209.332031 " fill-opacity="1" fill-rule="nonzero"/></svg>